<svg width="284" height="284" viewBox="0 0 284 284" fill="none" xmlns="http://www.w3.org/2000/svg">
<path d="M283.294 197.486L142.17 274.816L0.706543 197.486L141.831 120.156L283.294 197.486Z" fill="white"/>
<path d="M180.051 213.466L217.098 233.756L255.007 212.986L218.299 192.88L180.051 213.466Z" fill="#E1EEF9"/>
<path d="M66.4787 161.442L0.706543 197.486L57.7891 228.698L123.152 192.88L66.4787 161.442Z" fill="#E1EEF9"/>
<path d="M123.151 192.88L57.7891 228.698L95.7546 249.44L161.414 213.466L123.151 192.88Z" fill="#E1EEF9"/>
<path d="M141.831 120.156L113.713 135.557L208.634 187.581L236.865 172.11L141.831 120.156Z" fill="#E1EEF9"/>
<path d="M283.294 197.486V205.964L142.17 283.294L0.706543 205.964V197.486L142.17 274.816L283.294 197.486Z" fill="#1791F5"/>
<path d="M123.151 192.88L57.7891 228.698" stroke="#2945FF" stroke-linecap="round" stroke-linejoin="round"/>
<path d="M207.772 238.871L170.725 218.567L105.08 254.54" stroke="#2945FF" stroke-linecap="round" stroke-linejoin="round"/>
<path d="M95.7548 249.44L161.414 213.466L66.4788 161.442" stroke="#2945FF" stroke-linecap="round" stroke-linejoin="round"/>
<path d="M75.804 156.341L170.725 208.351L236.864 172.11" stroke="#2945FF" stroke-linecap="round" stroke-linejoin="round"/>
<path d="M217.098 233.756L180.051 213.466L246.204 177.21" stroke="#2945FF" stroke-linecap="round" stroke-linejoin="round"/>
<path d="M255.007 212.986L218.299 192.866" stroke="#2945FF" stroke-linecap="round" stroke-linejoin="round"/>
<path d="M113.713 135.557L208.634 187.581" stroke="#2945FF" stroke-linecap="round" stroke-linejoin="round"/>
<path d="M283.294 197.486L142.17 274.816L0.706543 197.486L141.831 120.156L283.294 197.486Z" stroke="#020D77" stroke-linecap="round" stroke-linejoin="round"/>
<path d="M283.294 197.486V205.964L142.17 283.294L0.706543 205.964V197.486" stroke="#020D77" stroke-linecap="round" stroke-linejoin="round"/>
<path d="M198.715 44.4651V151.212L141.943 182.537V75.7899L198.715 44.4651Z" fill="#8DC9F8"/>
<path d="M141.943 75.7899V182.537L85.0869 151.156V44.4086L141.943 75.7899Z" fill="#1791F5"/>
<path d="M202.29 34.0093L141.943 67.3122L81.6111 34.0093L141.943 0.706421L202.29 34.0093Z" fill="#E1EEF9"/>
<path d="M202.29 34.0093V42.4869L198.715 44.4509V44.465L141.943 75.7898L85.0869 44.4085L81.6111 42.4869V34.0093L141.943 67.3122L202.29 34.0093Z" fill="#2945FF"/>
<path d="M198.772 44.4509V151.212L142 182.537L85.1294 151.156V44.3944" stroke="#020D77" stroke-linecap="round" stroke-linejoin="round"/>
<path d="M202.333 34.0093L142 67.3122L81.6538 34.0093L142 0.706421L202.333 34.0093Z" stroke="#020D77" stroke-linecap="round" stroke-linejoin="round"/>
<path d="M202.332 34.0093V42.4869L142 75.7898L81.6536 42.4869V34.0093" stroke="#020D77" stroke-linecap="round" stroke-linejoin="round"/>
<path d="M142 75.7898V182.537" stroke="#020D77" stroke-linecap="round" stroke-linejoin="round"/>
<path d="M142 75.7898V182.537" stroke="#020D77" stroke-linecap="round" stroke-linejoin="round"/>
<path d="M198.772 151.212L142 182.537" stroke="#020D77" stroke-linecap="round" stroke-linejoin="round"/>
<path d="M198.772 44.4509V151.212" stroke="#020D77" stroke-linecap="round" stroke-linejoin="round"/>
<path d="M187.398 64.1614V97.2947L176.038 103.568V70.4348L187.398 64.1614Z" stroke="#2945FF" stroke-linecap="round" stroke-linejoin="round"/>
<path d="M153.318 82.9817V116.115L164.678 109.842V76.7083L153.318 82.9817Z" stroke="#2945FF" stroke-linecap="round" stroke-linejoin="round"/>
<path d="M187.398 110.76V143.893L176.038 150.167V117.033L187.398 110.76Z" stroke="#2945FF" stroke-linecap="round" stroke-linejoin="round"/>
<path d="M153.318 129.566V162.714L164.678 156.44V123.307L153.318 129.566Z" stroke="#2945FF" stroke-linecap="round" stroke-linejoin="round"/>
<path d="M96.6306 64.1614V97.2947L107.991 103.568V70.4348L96.6306 64.1614Z" stroke="#2945FF" stroke-linecap="round" stroke-linejoin="round"/>
<path d="M130.725 82.9817V116.115L119.351 109.842V76.7083L130.725 82.9817Z" stroke="#2945FF" stroke-linecap="round" stroke-linejoin="round"/>
<path d="M96.6306 110.76V143.893L107.991 150.167V117.033L96.6306 110.76Z" stroke="#2945FF" stroke-linecap="round" stroke-linejoin="round"/>
<path d="M130.725 129.566V162.714L119.351 156.44V123.307L130.725 129.566Z" stroke="#2945FF" stroke-linecap="round" stroke-linejoin="round"/>
<path d="M218.299 220.828C225.151 220.828 230.718 217.536 230.718 213.466C230.718 209.397 225.151 206.105 218.299 206.105C211.446 206.105 205.879 209.397 205.879 213.466C205.879 217.536 211.446 220.828 218.299 220.828Z" stroke="#FF7A64" stroke-linecap="round" stroke-linejoin="round"/>
<path d="M218.299 182.255C226.79 182.255 233.671 175.374 233.671 166.882C233.671 158.39 226.79 151.509 218.299 151.509C209.807 151.509 202.926 158.39 202.926 166.882C202.926 175.374 209.807 182.255 218.299 182.255Z" fill="url(#paint0_radial_811_200895)"/>
<path d="M218.299 182.255C226.79 182.255 233.671 175.374 233.671 166.882C233.671 158.39 226.79 151.509 218.299 151.509C209.807 151.509 202.926 158.39 202.926 166.882C202.926 175.374 209.807 182.255 218.299 182.255Z" stroke="#020D77" stroke-linecap="round" stroke-linejoin="round"/>
<path d="M218.299 213.466V182.255" stroke="#020D77" stroke-linecap="round" stroke-linejoin="round"/>
<path d="M77.2312 113.275C66.4646 107.157 49.3398 116.539 38.983 134.215C28.6262 151.947 30.5478 167.461 39.7319 177.38L58.3826 197.472L77.9659 156.426C87.2913 137.026 87.9977 119.421 77.2453 113.261L77.2312 113.275ZM65.0093 151.099C61.5193 157.034 55.7828 160.199 52.1516 158.15C48.5345 156.073 48.4214 149.602 51.9114 143.625C55.4013 137.691 61.1379 134.526 64.7267 136.603C68.3438 138.651 68.4569 145.151 64.9952 151.085L65.0093 151.099Z" fill="white"/>
<path d="M65.0235 151.099C61.5336 157.034 55.797 160.199 52.1658 158.15C48.5487 156.073 48.4357 149.602 51.9256 143.625C55.4156 137.691 61.1521 134.526 64.7409 136.603C68.358 138.651 68.4711 145.151 65.0094 151.085L65.0235 151.099Z" fill="#FF7A64"/>
<path d="M38.983 134.215C28.6262 151.947 30.5478 167.461 39.7319 177.38L58.3826 197.472L26.0688 170.866C18.9193 164.974 14.4121 156.214 14.5957 146.917C14.737 140.149 16.913 132.604 21.5615 124.621C31.9325 106.917 49.0572 97.5208 59.8097 103.681L77.217 113.261C66.4505 107.143 49.3257 116.525 38.9689 134.201L38.983 134.215Z" fill="url(#paint1_linear_811_200895)"/>
<path d="M77.2312 113.289C66.4646 107.157 49.3398 116.539 38.983 134.229C28.6262 151.947 30.5619 167.475 39.7319 177.394L58.3826 197.472L77.9659 156.426C87.2913 137.012 87.9977 119.393 77.2453 113.261L77.2312 113.289Z" stroke="#020D77" stroke-linecap="round" stroke-linejoin="round"/>
<path d="M65.0093 151.085C61.5335 157.048 55.7829 160.184 52.1658 158.136C48.5628 156.073 48.4356 149.587 51.9256 143.625C55.4014 137.691 61.1379 134.526 64.7409 136.588C68.3439 138.637 68.471 145.137 64.9952 151.071L65.0093 151.085Z" stroke="#020D77" stroke-linecap="round" stroke-linejoin="round"/>
<path d="M77.2313 113.289L59.8239 103.681C49.0574 97.5492 31.9326 106.931 21.5758 124.621C16.9131 132.604 14.7372 140.135 14.61 146.931C14.4122 156.228 18.9195 164.989 26.0972 170.881L58.3969 197.458" stroke="#020D77" stroke-linecap="round" stroke-linejoin="round"/>
<defs>
<radialGradient id="paint0_radial_811_200895" cx="0" cy="0" r="1" gradientUnits="userSpaceOnUse" gradientTransform="translate(217.557 159.306) rotate(87.95) scale(22.8175)">
<stop offset="0.15" stop-color="#FFCBAE"/>
<stop offset="0.65" stop-color="#FF7A64"/>
</radialGradient>
<linearGradient id="paint1_linear_811_200895" x1="73.7412" y1="113.063" x2="31.7205" y2="172.562" gradientUnits="userSpaceOnUse">
<stop offset="0.11" stop-color="#FFCBAE"/>
<stop offset="0.85" stop-color="#FF7A64"/>
</linearGradient>
</defs>
</svg>
