<svg width="72" height="72" viewBox="0 0 72 72" fill="none" xmlns="http://www.w3.org/2000/svg">
<path d="M54.756 64.3317H17.244C16.092 64.3317 15.228 63.3957 15.228 62.3157V35.7477C15.228 34.5957 16.164 33.7317 17.244 33.7317H54.756C55.908 33.7317 56.772 34.6677 56.772 35.7477V62.3157C56.772 63.4677 55.908 64.3317 54.756 64.3317Z" fill="white"/>
<path d="M55.332 64.3317H16.668C15.876 64.3317 15.228 63.6837 15.228 62.8917V35.0997C15.228 34.3077 15.876 33.6597 16.668 33.6597H55.404C56.196 33.6597 56.844 34.3077 56.844 35.0997V62.8917C56.772 63.6837 56.124 64.3317 55.332 64.3317Z" stroke="black" stroke-width="1.5" stroke-miterlimit="10" stroke-linecap="round" stroke-linejoin="round"/>
<path d="M45.9 46.1157H26.172" stroke="black" stroke-width="1.5" stroke-miterlimit="10" stroke-linecap="round" stroke-linejoin="round"/>
<path d="M36.18 38.7717L36.108 38.6997C35.82 38.3397 35.316 37.7637 34.812 37.1157C33.732 35.7477 32.22 33.8757 30.708 31.7157C29.196 29.5557 27.684 27.1077 26.46 24.7317C25.236 22.3557 24.3 19.9797 24.084 17.9637C23.652 14.6517 24.444 11.1957 26.46 8.60369C28.476 6.01169 31.644 4.28369 35.964 4.28369C40.356 4.28369 43.524 6.08369 45.54 8.60369C47.556 11.1957 48.42 14.5797 47.988 17.9637C47.484 22.4997 44.46 27.8277 41.436 32.0757C39.996 34.1637 38.556 35.9637 37.476 37.2597C36.972 37.8357 36.54 38.3397 36.18 38.7717C36.18 38.6997 36.18 38.7717 36.18 38.7717Z" fill="#FFAD9F"/>
<path d="M36.18 38.7717L36.108 38.6997C35.82 38.3397 35.316 37.7637 34.812 37.1157C33.732 35.7477 32.22 33.8757 30.708 31.7157C29.196 29.5557 27.684 27.1077 26.46 24.7317C25.236 22.3557 24.3 19.9797 24.084 17.9637C23.652 14.6517 24.444 11.1957 26.46 8.60369C28.476 6.01169 31.644 4.28369 35.964 4.28369C40.356 4.28369 43.524 6.08369 45.54 8.60369C47.556 11.1957 48.42 14.5797 47.988 17.9637C47.484 22.4997 44.46 27.8277 41.436 32.0757C39.996 34.1637 38.556 35.9637 37.476 37.2597C36.972 37.8357 36.54 38.3397 36.18 38.7717ZM36.18 38.7717C36.18 38.6997 36.18 38.7717 36.18 38.7717Z" stroke="black" stroke-width="1.5" stroke-miterlimit="10" stroke-linecap="round" stroke-linejoin="round"/>
<path d="M39.42 15.2997C39.42 13.5717 37.98 12.1317 36.252 12.1317C34.524 12.1317 33.084 13.5717 33.084 15.2997C33.084 17.0277 34.524 18.4677 36.252 18.4677" stroke="black" stroke-width="1.5" stroke-miterlimit="10" stroke-linecap="round" stroke-linejoin="round"/>
<path d="M33.084 21.6357C33.084 23.3637 34.524 24.8037 36.252 24.8037C37.98 24.8037 39.42 23.3637 39.42 21.6357C39.42 19.9076 37.98 18.4677 36.252 18.4677" stroke="black" stroke-width="1.5" stroke-miterlimit="10" stroke-linecap="round" stroke-linejoin="round"/>
<path d="M36.252 24.8037V28.1877" stroke="black" stroke-width="1.5" stroke-miterlimit="10" stroke-linecap="round" stroke-linejoin="round"/>
<path d="M36.252 8.74768V12.2037" stroke="black" stroke-width="1.5" stroke-miterlimit="10" stroke-linecap="round" stroke-linejoin="round"/>
<path d="M23.94 4.21167C20.916 7.23567 19.116 11.4117 19.116 16.0197C19.116 17.8917 19.404 19.7637 20.052 21.4917" stroke="black" stroke-width="1.5" stroke-miterlimit="10" stroke-linecap="round" stroke-linejoin="round"/>
<path d="M51.948 21.4917C52.524 19.7637 52.884 17.9637 52.884 16.0197C52.884 11.4117 51.012 7.23567 48.06 4.21167" stroke="black" stroke-width="1.5" stroke-miterlimit="10" stroke-linecap="round" stroke-linejoin="round"/>
<path d="M32.652 56.4838V54.1078" stroke="black" stroke-width="1.5" stroke-miterlimit="10" stroke-linecap="round" stroke-linejoin="round"/>
<path d="M45.8994 68.3094L45.8994 46.1334L26.1714 46.1334L26.1714 68.3094H45.8994Z" fill="#86C5F9"/>
<path d="M45.9002 46.1157V68.2917H26.1722" stroke="black" stroke-width="1.5" stroke-miterlimit="10" stroke-linecap="round" stroke-linejoin="round"/>
<path d="M26.1722 53.5317V46.1157" stroke="black" stroke-width="1.5" stroke-miterlimit="10" stroke-linecap="round" stroke-linejoin="round"/>
<path d="M45.9002 68.2917H26.1722V56.7717V46.1157" stroke="black" stroke-width="1.5" stroke-miterlimit="10" stroke-linecap="round" stroke-linejoin="round"/>
<path d="M42.588 46.1157V62.5317C41.22 62.5317 40.14 63.6117 40.14 64.9797H31.932C31.932 63.6117 30.852 62.5317 29.484 62.5317V46.1157" stroke="black" stroke-width="1.5" stroke-miterlimit="10" stroke-linecap="round" stroke-linejoin="round"/>
<path d="M36.036 60.0837V56.7717" stroke="black" stroke-width="1.5" stroke-miterlimit="10" stroke-linecap="round" stroke-linejoin="round"/>
<path d="M32.724 49.4277C32.724 51.2277 34.164 52.7397 36.036 52.7397C37.908 52.7397 39.348 51.2997 39.348 49.4277C39.348 47.6277 37.908 46.1157 36.036 46.1157C34.164 46.1157 32.724 47.5557 32.724 49.4277Z" stroke="black" stroke-width="1.5" stroke-miterlimit="10" stroke-linecap="round" stroke-linejoin="round"/>
<path d="M51.732 38.7716H20.196V46.1156H51.732V38.7716Z" stroke="black" stroke-width="1.5" stroke-miterlimit="10" stroke-linecap="round" stroke-linejoin="round"/>
</svg>
